<?xml version="1.0" encoding="UTF-8"?>
<svg version="1.1" xmlns="http://www.w3.org/2000/svg" width="512" height="512">
<path d="M0 0 C26.56569106 25.68382554 40.50162036 59.37802405 41.65063477 96.15625 C42.24665949 132.20940506 27.77534396 166.74477672 2.81079102 192.5703125 C-23.09443795 218.59723844 -57.06990975 232.04263253 -93.62963867 232.67089844 C-129.91313137 232.57837223 -164.14922202 217.73995268 -189.78295898 192.22607422 C-215.87085343 165.54603128 -228.40303853 130.71863699 -228.31030273 93.6640625 C-227.22968217 57.2649318 -211.51686759 24.32459054 -185.65405273 -0.9296875 C-165.13150464 -20.06869303 -138.29435781 -33.08545313 -110.31030273 -36.3359375 C-109.27260742 -36.45839844 -108.23491211 -36.58085938 -107.16577148 -36.70703125 C-67.55327554 -40.44231899 -28.94841738 -27.17588754 0 0 Z M-169.84155273 30.33984375 C-187.80994456 50.83157455 -196.204926 76.70520588 -195.2331543 103.81640625 C-193.45807386 130.8183598 -180.74240561 155.11079845 -161.31030273 173.6640625 C-146.41319583 186.47921281 -127.95255836 196.04282561 -108.31030273 198.6640625 C-107.49432617 198.77363281 -106.67834961 198.88320313 -105.83764648 198.99609375 C-79.69431711 202.02661879 -52.86577454 194.95172322 -31.95874023 178.84765625 C-9.19063814 160.07572547 4.98290353 136.41477721 8.28344727 106.94140625 C10.6560891 80.44852643 2.43967124 54.24973807 -14.28540039 33.58935547 C-32.17800015 12.17690001 -56.00766094 -0.87346411 -83.74780273 -4.0859375 C-85.26732626 -4.19046848 -86.78841782 -4.27474283 -88.31030273 -4.3359375 C-89.44725586 -4.39587891 -89.44725586 -4.39587891 -90.60717773 -4.45703125 C-121.15666949 -5.30562824 -149.12999656 8.44568328 -169.84155273 30.33984375 Z " fill="#000000" transform="translate(349.310302734375,158.3359375)"/>
<path d="M0 0 C4.97054518 3.07501237 8.90863638 7.56172014 12.99429321 11.69744873 C14.03259178 12.73559213 15.07155889 13.77306727 16.11116028 14.80990601 C18.28003455 16.97740072 20.44181145 19.15166025 22.59854126 21.33123779 C25.35840149 24.11953443 28.13360986 26.8919332 30.91406727 29.65967369 C33.05843457 31.79707659 35.19535431 33.9418007 37.33002281 36.08888626 C38.35060028 37.11396705 39.37325732 38.13698189 40.39805031 39.15784836 C41.82918578 40.58606306 43.24950645 42.02508977 44.66934204 43.46453857 C45.47873734 44.27933685 46.28813263 45.09413513 47.12205505 45.93362427 C51.01370045 50.58812956 51.54735043 54.97970889 51.41616821 60.86541748 C50.77843711 65.77043573 48.05381486 68.45853606 44.47476196 71.61151123 C41.17031861 73.95940519 39.36446211 74.47601668 35.34976196 74.54901123 C34.50929321 74.57479248 33.66882446 74.60057373 32.80288696 74.62713623 C27.1108655 73.93619721 23.20566648 70.78203485 19.24356079 66.84686279 C18.33274246 65.94872864 17.42192413 65.05059448 16.48350525 64.12524414 C15.50747717 63.14716439 14.53191777 62.16861677 13.55679321 61.18963623 C12.54158722 60.17899715 11.52601192 59.16872892 10.51008606 58.15881348 C8.38786479 56.04550197 6.27138157 53.92664119 4.15859985 51.80389404 C1.46042347 49.09422914 -1.25328049 46.40074494 -3.97175121 43.71146011 C-6.07128822 41.63033376 -8.16136694 39.53990425 -10.24886513 37.44670868 C-11.24526552 36.45015567 -12.24474472 35.45667054 -13.24742699 34.46643829 C-24.22476171 23.60632526 -24.22476171 23.60632526 -25.33773804 14.86151123 C-24.59270176 8.79478729 -22.64625334 4.68869688 -17.83773804 0.86151123 C-11.88105781 -2.3069357 -6.26565898 -2.8338608 0 0 Z " fill="#000000" transform="translate(390.9002380371094,367.70098876953125)"/>
<path d="M0 0 C3.68807589 2.6217409 5.39998447 6.08667215 6.796875 10.27734375 C7.31549974 17.01946542 6.07732806 21.5928878 1.73956299 26.6991272 C-0.98957253 29.57698575 -3.78045264 32.38492066 -6.6015625 35.171875 C-7.6397059 36.21017357 -8.67718104 37.24914067 -9.71401978 38.28874207 C-11.88151449 40.45761634 -14.05577402 42.61939324 -16.23535156 44.77612305 C-19.0236482 47.53598328 -21.79604697 50.31119165 -24.56378746 53.09164906 C-26.70119036 55.23601636 -28.84591447 57.37293609 -30.99300003 59.5076046 C-32.01808082 60.52818207 -33.04109566 61.55083911 -34.06196213 62.5756321 C-35.49017683 64.00676757 -36.92920354 65.42708823 -38.36865234 66.84692383 C-39.18345062 67.65631912 -39.9982489 68.46571442 -40.83773804 69.29963684 C-45.49224333 73.19128223 -49.88382266 73.72493221 -55.76953125 73.59375 C-60.67454949 72.9560189 -63.36264982 70.23139665 -66.515625 66.65234375 C-68.86351896 63.34790039 -69.38013045 61.54204389 -69.453125 57.52734375 C-69.47890625 56.686875 -69.5046875 55.84640625 -69.53125 54.98046875 C-68.84031098 49.28844729 -65.68614862 45.38324827 -61.75097656 41.42114258 C-60.85284241 40.51032425 -59.95470825 39.59950592 -59.02935791 38.66108704 C-58.05127816 37.68505896 -57.07273054 36.70949955 -56.09375 35.734375 C-55.08311092 34.71916901 -54.07284269 33.7035937 -53.06292725 32.68766785 C-50.94961574 30.56544658 -48.83075496 28.44896336 -46.70800781 26.33618164 C-43.99834291 23.63800526 -41.30485871 20.92430129 -38.61557388 18.20583057 C-36.53444753 16.10629356 -34.44401802 14.01621484 -32.35082245 11.92871666 C-31.35426944 10.93231626 -30.36078431 9.93283707 -29.37055206 8.9301548 C-20.63068013 0.0959466 -12.43787498 -6.77333889 0 0 Z " fill="#000000" transform="translate(139.203125,368.72265625)"/>
<path d="M0 0 C1.26070312 -0.03867188 1.26070312 -0.03867188 2.546875 -0.078125 C8.23889646 0.61281402 12.14409548 3.76697638 16.10620117 7.70214844 C17.0170195 8.60028259 17.92783783 9.49841675 18.86625671 10.42376709 C19.84228479 11.40184684 20.8178442 12.38039446 21.79296875 13.359375 C22.80817474 14.37001408 23.82375005 15.38028231 24.8396759 16.39019775 C26.96189717 18.50350926 29.07838039 20.62237004 31.19116211 22.74511719 C33.88933849 25.45478209 36.60304246 28.14826629 39.32151318 30.83755112 C41.42105019 32.91867747 43.51112891 35.00910698 45.59862709 37.10230255 C46.59502749 38.09885556 47.59450668 39.09234069 48.59718895 40.08257294 C59.57452367 50.94268597 59.57452367 50.94268597 60.6875 59.6875 C59.94246373 65.75422394 57.9960153 69.86031435 53.1875 73.6875 C47.73104384 76.5898703 43.18942247 77.08338867 37.1965332 75.38427734 C31.22370301 72.68285848 26.89235328 67.44404881 22.35546875 62.8515625 C21.31717018 61.8134191 20.27820308 60.77594396 19.23860168 59.73910522 C17.06972741 57.57161051 14.90795051 55.39735098 12.7512207 53.21777344 C9.99136047 50.4294768 7.2161521 47.65707803 4.43569469 44.88933754 C2.29132739 42.75193464 0.15440766 40.60721053 -1.98026085 38.46012497 C-3.00083832 37.43504418 -4.02349536 36.41202934 -5.04828835 35.39116287 C-6.47942382 33.96294817 -7.89974448 32.52392146 -9.31958008 31.08447266 C-10.12897537 30.26967438 -10.93837067 29.4548761 -11.77229309 28.61538696 C-15.66393848 23.96088167 -16.19758846 19.56930234 -16.06640625 13.68359375 C-15.42867515 8.77857551 -12.7040529 6.09047518 -9.125 2.9375 C-5.82055664 0.58960604 -4.01470014 0.07299455 0 0 Z " fill="#000000" transform="translate(85.75,69.75)"/>
<path d="M0 0 C3.57640426 3.15064185 7.36426854 6.524679 7.828125 11.484375 C7.85132813 12.76054688 7.85132813 12.76054688 7.875 14.0625 C7.90078125 14.90296875 7.9265625 15.7434375 7.953125 16.609375 C7.26218598 22.30139646 4.10802362 26.20659548 0.17285156 30.16870117 C-0.72528259 31.0795195 -1.62341675 31.99033783 -2.54876709 32.92875671 C-3.52684684 33.90478479 -4.50539446 34.8803442 -5.484375 35.85546875 C-6.49501408 36.87067474 -7.50528231 37.88625005 -8.51519775 38.9021759 C-10.62850926 41.02439717 -12.74737004 43.14088039 -14.87011719 45.25366211 C-17.57978209 47.95183849 -20.27326629 50.66554246 -22.96255112 53.38401318 C-25.04367747 55.48355019 -27.13410698 57.57362891 -29.22730255 59.66112709 C-30.22385556 60.65752749 -31.21734069 61.65700668 -32.20757294 62.65968895 C-43.06768597 73.63702367 -43.06768597 73.63702367 -51.8125 74.75 C-57.87922394 74.00496373 -61.98531435 72.0585153 -65.8125 67.25 C-68.7148703 61.79354384 -69.20838867 57.25192247 -67.50927734 51.2590332 C-64.80785848 45.28620301 -59.56904881 40.95485328 -54.9765625 36.41796875 C-53.9384191 35.37967018 -52.90094396 34.34070308 -51.86410522 33.30110168 C-49.69661051 31.13222741 -47.52235098 28.97045051 -45.34277344 26.8137207 C-42.5544768 24.05386047 -39.78207803 21.2786521 -37.01433754 18.49819469 C-34.87693464 16.35382739 -32.73221053 14.21690766 -30.58512497 12.08223915 C-29.56004418 11.06166168 -28.53702934 10.03900464 -27.51616287 9.01421165 C-26.08794817 7.58307618 -24.64892146 6.16275552 -23.20947266 4.74291992 C-21.98727524 3.52882698 -21.98727524 3.52882698 -20.74038696 2.29020691 C-14.75832912 -2.71140903 -6.91836674 -3.45918337 0 0 Z " fill="#000000" transform="translate(434.375,71.6875)"/>
<path d="M0 0 C4.97495875 2.30980228 7.3212807 5.27821038 10 10 C10.50793457 13.45251465 10.50793457 13.45251465 10.51757812 17.28710938 C10.5245874 17.99035843 10.53159668 18.69360748 10.53881836 19.41816711 C10.55632617 21.72710453 10.54480262 24.0348016 10.53125 26.34375 C10.53394702 27.95748122 10.53783119 29.57121085 10.54284668 31.18493652 C10.54873191 34.56078623 10.54021066 37.9362115 10.52148438 41.31201172 C10.49869493 45.629695 10.51182332 49.94638363 10.53577423 54.26403046 C10.55025889 57.59445633 10.54561411 60.92464809 10.53526306 64.25508118 C10.53260312 65.84662495 10.53583968 67.43819028 10.54518127 69.02970886 C10.55539156 71.25800517 10.53978636 73.4847121 10.51757812 75.71289062 C10.51280457 77.61101501 10.51280457 77.61101501 10.50793457 79.54748535 C9.74092956 84.76094428 7.25238497 87.81023427 3.5 91.375 C-1.66500009 93.77303575 -6.4002288 93.75381535 -12 93 C-16.97495875 90.69019772 -19.3212807 87.72178962 -22 83 C-22.50793457 79.54748535 -22.50793457 79.54748535 -22.51757812 75.71289062 C-22.5245874 75.00964157 -22.53159668 74.30639252 -22.53881836 73.58183289 C-22.55632617 71.27289547 -22.54480262 68.9651984 -22.53125 66.65625 C-22.53394702 65.04251878 -22.53783119 63.42878915 -22.54284668 61.81506348 C-22.54873191 58.43921377 -22.54021066 55.0637885 -22.52148438 51.68798828 C-22.49869493 47.370305 -22.51182332 43.05361637 -22.53577423 38.73596954 C-22.55025889 35.40554367 -22.54561411 32.07535191 -22.53526306 28.74491882 C-22.53260312 27.15337505 -22.53583968 25.56180972 -22.54518127 23.97029114 C-22.55539156 21.74199483 -22.53978636 19.5152879 -22.51757812 17.28710938 C-22.51439575 16.02169312 -22.51121338 14.75627686 -22.50793457 13.45251465 C-21.74092956 8.23905572 -19.25238497 5.18976573 -15.5 1.625 C-10.33499991 -0.77303575 -5.5997712 -0.75381535 0 0 Z " fill="#000000" transform="translate(262,419)"/>
<path d="M0 0 C0.70324905 -0.00700928 1.40649811 -0.01401855 2.13105774 -0.02124023 C4.43999516 -0.03874805 6.74769223 -0.0272245 9.05664062 -0.01367188 C10.67037184 -0.0163689 12.28410147 -0.02025307 13.89782715 -0.02526855 C17.27367686 -0.03115379 20.64910212 -0.02263253 24.02490234 -0.00390625 C28.34258563 0.01888319 32.65927425 0.0057548 36.97692108 -0.01819611 C40.30734695 -0.03268076 43.63753871 -0.02803598 46.9679718 -0.01768494 C48.55951557 -0.015025 50.15108091 -0.01826156 51.74259949 -0.02760315 C53.97089579 -0.03781344 56.19760272 -0.02220824 58.42578125 0 C59.69119751 0.00318237 60.95661377 0.00636475 62.26037598 0.00964355 C67.4738349 0.77664856 70.5231249 3.26519315 74.08789062 7.01757812 C76.48592638 12.18257821 76.46670598 16.91780692 75.71289062 22.51757812 C73.40308835 27.49253688 70.43468025 29.83885882 65.71289062 32.51757812 C62.26037598 33.0255127 62.26037598 33.0255127 58.42578125 33.03515625 C57.7225322 33.04216553 57.01928314 33.0491748 56.29472351 33.05639648 C53.98578609 33.0739043 51.67808902 33.06238075 49.36914062 33.04882812 C47.75540941 33.05152515 46.14167978 33.05540932 44.5279541 33.0604248 C41.15210439 33.06631004 37.77667913 33.05778878 34.40087891 33.0390625 C30.08319562 33.01627306 25.766507 33.02940145 21.44886017 33.05335236 C18.1184343 33.06783701 14.78824254 33.06319223 11.45780945 33.05284119 C9.86626568 33.05018125 8.27470034 33.05341781 6.68318176 33.0627594 C4.45488546 33.07296969 2.22817853 33.05736449 0 33.03515625 C-1.26541626 33.03197388 -2.53083252 33.0287915 -3.83459473 33.0255127 C-9.04805365 32.25850769 -12.09734365 29.7699631 -15.66210938 26.01757812 C-18.06014513 20.85257804 -18.04092473 16.11734933 -17.28710938 10.51757812 C-13.77412196 2.9511437 -8.1474629 0.02048991 0 0 Z " fill="#000000" transform="translate(436.287109375,239.482421875)"/>
<path d="M0 0 C0.70324905 -0.00700928 1.40649811 -0.01401855 2.13105774 -0.02124023 C4.43999516 -0.03874805 6.74769223 -0.0272245 9.05664062 -0.01367188 C10.67037184 -0.0163689 12.28410147 -0.02025307 13.89782715 -0.02526855 C17.27367686 -0.03115379 20.64910212 -0.02263253 24.02490234 -0.00390625 C28.34258563 0.01888319 32.65927425 0.0057548 36.97692108 -0.01819611 C40.30734695 -0.03268076 43.63753871 -0.02803598 46.9679718 -0.01768494 C48.55951557 -0.015025 50.15108091 -0.01826156 51.74259949 -0.02760315 C53.97089579 -0.03781344 56.19760272 -0.02220824 58.42578125 0 C59.69119751 0.00318237 60.95661377 0.00636475 62.26037598 0.00964355 C67.4738349 0.77664856 70.5231249 3.26519315 74.08789062 7.01757812 C76.48592638 12.18257821 76.46670598 16.91780692 75.71289062 22.51757812 C73.40308835 27.49253688 70.43468025 29.83885882 65.71289062 32.51757812 C62.26037598 33.0255127 62.26037598 33.0255127 58.42578125 33.03515625 C57.7225322 33.04216553 57.01928314 33.0491748 56.29472351 33.05639648 C53.98578609 33.0739043 51.67808902 33.06238075 49.36914062 33.04882812 C47.75540941 33.05152515 46.14167978 33.05540932 44.5279541 33.0604248 C41.15210439 33.06631004 37.77667913 33.05778878 34.40087891 33.0390625 C30.08319562 33.01627306 25.766507 33.02940145 21.44886017 33.05335236 C18.1184343 33.06783701 14.78824254 33.06319223 11.45780945 33.05284119 C9.86626568 33.05018125 8.27470034 33.05341781 6.68318176 33.0627594 C4.45488546 33.07296969 2.22817853 33.05736449 0 33.03515625 C-1.26541626 33.03197388 -2.53083252 33.0287915 -3.83459473 33.0255127 C-9.04805365 32.25850769 -12.09734365 29.7699631 -15.66210938 26.01757812 C-18.06014513 20.85257804 -18.04092473 16.11734933 -17.28710938 10.51757812 C-13.77412196 2.9511437 -8.1474629 0.02048991 0 0 Z " fill="#000000" transform="translate(17.287109375,239.482421875)"/>
<path d="M0 0 C4.97495875 2.30980228 7.3212807 5.27821038 10 10 C10.50793457 13.45251465 10.50793457 13.45251465 10.51757812 17.28710938 C10.5245874 17.99035843 10.53159668 18.69360748 10.53881836 19.41816711 C10.55632617 21.72710453 10.54480262 24.0348016 10.53125 26.34375 C10.53394702 27.95748122 10.53783119 29.57121085 10.54284668 31.18493652 C10.54873191 34.56078623 10.54021066 37.9362115 10.52148438 41.31201172 C10.49869493 45.629695 10.51182332 49.94638363 10.53577423 54.26403046 C10.55025889 57.59445633 10.54561411 60.92464809 10.53526306 64.25508118 C10.53260312 65.84662495 10.53583968 67.43819028 10.54518127 69.02970886 C10.55539156 71.25800517 10.53978636 73.4847121 10.51757812 75.71289062 C10.51280457 77.61101501 10.51280457 77.61101501 10.50793457 79.54748535 C9.74092956 84.76094428 7.25238497 87.81023427 3.5 91.375 C-1.66500009 93.77303575 -6.4002288 93.75381535 -12 93 C-16.97495875 90.69019772 -19.3212807 87.72178962 -22 83 C-22.50793457 79.54748535 -22.50793457 79.54748535 -22.51757812 75.71289062 C-22.5245874 75.00964157 -22.53159668 74.30639252 -22.53881836 73.58183289 C-22.55632617 71.27289547 -22.54480262 68.9651984 -22.53125 66.65625 C-22.53394702 65.04251878 -22.53783119 63.42878915 -22.54284668 61.81506348 C-22.54873191 58.43921377 -22.54021066 55.0637885 -22.52148438 51.68798828 C-22.49869493 47.370305 -22.51182332 43.05361637 -22.53577423 38.73596954 C-22.55025889 35.40554367 -22.54561411 32.07535191 -22.53526306 28.74491882 C-22.53260312 27.15337505 -22.53583968 25.56180972 -22.54518127 23.97029114 C-22.55539156 21.74199483 -22.53978636 19.5152879 -22.51757812 17.28710938 C-22.51439575 16.02169312 -22.51121338 14.75627686 -22.50793457 13.45251465 C-21.74092956 8.23905572 -19.25238497 5.18976573 -15.5 1.625 C-10.33499991 -0.77303575 -5.5997712 -0.75381535 0 0 Z " fill="#000000" transform="translate(262,0)"/>
</svg>
